<?xml version="1.0" encoding="UTF-8" standalone="no"?>
<svg viewBox="0 0 270.11 256.93" xmlns="http://www.w3.org/2000/svg">
  <defs>
    <linearGradient id="arrowGradient" x1="0%" y1="0%" x2="100%" y2="100%">
      <stop offset="0%" stopColor="#2D5BFF">
        <animate attributeName="stop-color" 
          values="#2D5BFF;#9AF23A;#FF7A29;#2D5BFF" 
          dur="15s" 
          repeatCount="indefinite" />
      </stop>
      <stop offset="33%" stopColor="#9AF23A">
        <animate attributeName="stop-color" 
          values="#9AF23A;#FF7A29;#2D5BFF;#9AF23A" 
          dur="15s" 
          repeatCount="indefinite" />
      </stop>
      <stop offset="66%" stopColor="#FF7A29">
        <animate attributeName="stop-color" 
          values="#FF7A29;#2D5BFF;#9AF23A;#FF7A29" 
          dur="15s" 
          repeatCount="indefinite" />
      </stop>
      <stop offset="100%" stopColor="#2D5BFF">
        <animate attributeName="stop-color" 
          values="#2D5BFF;#9AF23A;#FF7A29;#2D5BFF" 
          dur="15s" 
          repeatCount="indefinite" />
      </stop>
    </linearGradient>
  </defs>
  
  <!-- White fill for empty spaces inside the arrow shape -->
  <path
     style="fill:white;stroke:none"
     d="M 61.830078,52.871094 V 157.47852 l 54.219062,-45.39322 9.43803,10.15003 46.70033,-38.668924 -8.73828,-7.53125 30.21875,-3.630859 -0.33203,28.287113 -9.33985,-7.09766 -59.57421,50.90039 -11.31446,-12.66016 -51.277342,44.07032 v 26.96679 l 81.069892,0.1868 0.8407,-55.57351 19.66874,-17.53449 -0.71675,72.9212 h 49.13742 V 52.871094 L 127.45196,52.342749 151.55814,80.087683 136.34303,91.884606 120.16648,72.509936 103.3295,52.474835 Z" />
  
  <!-- Animated gradient arrow breaking through -->
  <path
     style="fill:url(#arrowGradient);stroke:none"
     d="M 61.830078,52.871094 V 157.47852 l 54.219062,-45.39322 9.43803,10.15003 46.70033,-38.668924 -8.73828,-7.53125 30.21875,-3.630859 -0.33203,28.287113 -9.33985,-7.09766 -59.57421,50.90039 -11.31446,-12.66016 -51.277342,44.07032 v 26.96679 l 81.069892,0.1868 0.8407,-55.57351 19.66874,-17.53449 -0.71675,72.9212 h 49.13742 V 52.871094 L 127.45196,52.342749 151.55814,80.087683 136.34303,91.884606 120.16648,72.509936 103.3295,52.474835 Z" />
</svg>
