<?xml version="1.0" encoding="UTF-8" standalone="no"?>
<svg viewBox="0 0 32 32" xmlns="http://www.w3.org/2000/svg">
  <defs>
    <linearGradient id="arrowGradient" x1="0%" y1="0%" x2="100%" y2="100%">
      <stop offset="0%" stopColor="#2D5BFF">
        <animate attributeName="stop-color" 
          values="#2D5BFF;#9AF23A;#FF7A29;#2D5BFF" 
          dur="15s" 
          repeatCount="indefinite" />
      </stop>
      <stop offset="33%" stopColor="#9AF23A">
        <animate attributeName="stop-color" 
          values="#9AF23A;#FF7A29;#2D5BFF;#9AF23A" 
          dur="15s" 
          repeatCount="indefinite" />
      </stop>
      <stop offset="66%" stopColor="#FF7A29">
        <animate attributeName="stop-color" 
          values="#FF7A29;#2D5BFF;#9AF23A;#FF7A29" 
          dur="15s" 
          repeatCount="indefinite" />
      </stop>
      <stop offset="100%" stopColor="#2D5BFF">
        <animate attributeName="stop-color" 
          values="#2D5BFF;#9AF23A;#FF7A29;#2D5BFF" 
          dur="15s" 
          repeatCount="indefinite" />
      </stop>
    </linearGradient>
  </defs>
  
  <!-- White fill for empty spaces inside the arrow shape -->
  <path
     style="fill:white;stroke:none"
     d="M 7.5 6.5 V 19.5 l 6.5 -5.5 1.1 1.2 5.6 -4.7 -1.0 -0.9 3.6 -0.4 -0.04 3.4 -1.1 -0.9 -7.1 6.2 -1.4 -1.5 -6.1 5.3 v 3.3 l 9.7 0.02 0.1 -6.7 2.4 -2.1 -0.09 8.8 h 5.9 V 6.5 L 15.5 6.3 18.5 9.7 16.6 11.2 14.6 8.8 12.6 6.4 Z" />
  
  <!-- Animated gradient arrow breaking through -->
  <path
     style="fill:url(#arrowGradient);stroke:none"
     d="M 7.5 6.5 V 19.5 l 6.5 -5.5 1.1 1.2 5.6 -4.7 -1.0 -0.9 3.6 -0.4 -0.04 3.4 -1.1 -0.9 -7.1 6.2 -1.4 -1.5 -6.1 5.3 v 3.3 l 9.7 0.02 0.1 -6.7 2.4 -2.1 -0.09 8.8 h 5.9 V 6.5 L 15.5 6.3 18.5 9.7 16.6 11.2 14.6 8.8 12.6 6.4 Z" />
</svg>
